<svg width="336.470245" height="69.117188" viewBox="0 0 336.47 69.1172" fill="none" xmlns="http://www.w3.org/2000/svg" xmlns:xlink="http://www.w3.org/1999/xlink">
	<desc>
			Created with Pixso.
	</desc>
	<defs/>
	<path id="Suvree" d="M13.05 66.63Q18.91 69.02 26.29 69.02Q33.89 69.02 39.44 66.23Q44.42 63.74 47.29 59.74Q47.63 59.26 47.95 58.75Q49.04 57 49.73 55.09Q50.88 51.89 50.88 48.28Q50.88 42.4 48.07 38.61Q47.99 38.5 47.9 38.39Q45.45 35.22 42.26 33.3Q41.57 32.88 40.85 32.53Q36.77 30.51 30.23 28.31Q23.71 26.2 20.64 24.37Q18.82 23.28 18.08 21.69Q17.57 20.61 17.57 19.28Q17.57 16.9 18.73 15.42Q19.02 15.05 19.38 14.74Q19.59 14.56 19.81 14.39Q21.55 13.14 24.18 13.14Q27.16 13.14 29.2 14.52Q29.54 14.75 29.85 15.02Q30.54 15.6 31.02 16.31Q32.12 17.9 32.25 20.15L50.01 20.15Q49.71 14.08 46.83 9.72Q45.19 7.24 42.72 5.32Q35.9 0 24.77 0Q13.86 0 7.05 5.28Q7.03 5.3 7 5.32Q4.34 7.39 2.72 10.09Q0.18 14.31 0.18 20.06Q0.18 26.39 3.16 30.32Q5.62 33.58 8.87 35.52Q9.55 35.93 10.26 36.28Q14.39 38.29 20.92 40.31Q25.42 41.64 27.86 42.7Q30.32 43.75 32.01 45.39Q32.7 46.07 33.11 46.89Q33.7 48.06 33.7 49.52Q33.7 51.39 32.87 52.75Q32.37 53.55 31.59 54.18Q29.48 55.87 25.82 55.87Q22.81 55.87 20.77 54.46Q20.4 54.2 20.06 53.9Q19.88 53.74 19.72 53.58Q17.82 51.63 17.48 48.18L0 48.18Q0.15 53.61 2.53 57.76Q3.05 58.66 3.67 59.5Q4.52 60.63 5.49 61.63Q8.59 64.79 13.05 66.63ZM277.05 45.49Q277.33 43 277.33 40.68Q277.33 32.62 273.93 26.57Q272.12 23.36 269.57 20.93Q267.32 18.79 264.49 17.27Q264.43 17.24 264.37 17.21Q258.37 14.01 250.66 14.01Q242.69 14.01 236.55 17.36L236.55 17.36Q233.85 18.83 231.68 20.87Q228.91 23.46 226.99 26.97Q223.59 33.21 223.59 41.55Q223.59 49.92 227.03 56.15Q228.97 59.64 231.74 62.23Q233.93 64.27 236.64 65.76Q236.89 65.9 237.15 66.03Q243.11 69.11 250.66 69.11Q257.17 69.11 262.45 66.72Q266.68 64.79 269.76 61.71Q270.53 60.94 271.24 60.09Q273.09 57.87 274.33 55.35Q275.46 53.08 276.09 50.57L258.63 50.57Q257.57 52.84 255.8 54.12Q253.52 55.75 250.07 55.75Q247.51 55.75 245.44 54.74Q244.18 54.12 243.11 53.13Q242.92 52.95 242.74 52.76Q240.25 50.15 239.9 45.49L277.05 45.49ZM336.18 45.49Q336.47 43 336.47 40.68Q336.47 32.62 333.07 26.57Q331.26 23.36 328.71 20.93Q326.45 18.79 323.62 17.27Q323.57 17.24 323.51 17.21Q317.5 14.01 309.79 14.01Q301.83 14.01 295.69 17.36L295.68 17.36Q292.99 18.83 290.82 20.87Q288.04 23.46 286.12 26.97Q282.72 33.21 282.72 41.55Q282.72 49.92 286.17 56.15Q288.11 59.64 290.88 62.23Q293.07 64.27 295.78 65.76Q296.03 65.9 296.28 66.03Q302.24 69.11 309.79 69.11Q316.31 69.11 321.58 66.72Q325.81 64.79 328.89 61.71Q329.67 60.94 330.37 60.09Q332.22 57.87 333.47 55.35Q334.59 53.08 335.22 50.57L317.76 50.57Q316.71 52.84 314.93 54.12Q312.66 55.75 309.21 55.75Q306.64 55.75 304.58 54.74Q303.32 54.12 302.25 53.13Q302.06 52.95 301.88 52.76Q299.39 50.15 299.04 45.49L336.18 45.49ZM207.25 18.17Q204.31 20.41 202.16 23.69L202.16 14.76L185.76 14.76L185.76 68.34L202.16 68.34L202.16 43.47Q202.16 36.86 205.23 34.21Q208.33 31.57 214.47 31.57L218.97 31.57L218.97 14.2Q215.45 14.2 212.34 15.34Q210.8 15.9 209.36 16.75Q208.26 17.4 207.25 18.17ZM113.86 68.34L113.86 14.76L97.43 14.76L97.43 43.87Q97.43 48.97 94.9 51.92Q94.77 52.07 94.64 52.21Q93.95 52.95 93.14 53.5Q90.68 55.19 87.07 55.19Q83.67 55.19 81.27 53.64Q80.34 53.04 79.57 52.21Q79.46 52.1 79.35 51.97Q76.8 49.02 76.8 43.87L76.8 14.76L60.46 14.76L60.46 46.07Q60.46 53.08 63.07 58.26Q64.89 61.88 67.73 64.31Q68.95 65.36 70.36 66.18Q70.74 66.41 71.14 66.61Q75.57 68.92 81.21 68.92Q85.68 68.92 89.47 67.32Q90.07 67.06 90.65 66.77Q94.67 64.73 97.1 61.5Q97.27 61.28 97.43 61.05L97.43 68.34L113.86 68.34ZM161.38 14.76L149.75 52.99L138.13 14.76L120.58 14.76L139.58 68.34L159.83 68.34L178.84 14.76L161.38 14.76ZM259.34 31.64Q260.55 33.64 260.55 36.37L239.99 36.37Q240.58 32.57 242.76 30.27Q243.1 29.9 243.49 29.57Q244.28 28.9 245.17 28.41Q247.48 27.16 250.47 27.16Q253.66 27.16 256.07 28.53Q256.92 29.01 257.67 29.67Q258.68 30.55 259.34 31.64ZM318.48 31.64Q319.68 33.64 319.68 36.37L299.13 36.37Q299.72 32.57 301.89 30.27Q302.24 29.9 302.62 29.57Q303.41 28.9 304.31 28.41Q306.61 27.16 309.61 27.16Q312.8 27.16 315.21 28.53Q316.05 29.01 316.8 29.67Q317.82 30.55 318.48 31.64Z" fill="#FAF7F7" fill-opacity="1.000000" fill-rule="evenodd"/>
</svg>
